<svg width="1165" height="300" viewBox="0 0 1165 300" fill="none" xmlns="http://www.w3.org/2000/svg">
<mask id="mask0_2557_2" style="mask-type:alpha" maskUnits="userSpaceOnUse" x="0" y="0" width="1165" height="300">
<path d="M0 0H1165V300H0V0Z" fill="#D9D9D9"/>
</mask>
<g mask="url(#mask0_2557_2)">
<mask id="mask1_2557_2" style="mask-type:luminance" maskUnits="userSpaceOnUse" x="-414" y="-830" width="2000" height="2000">
<path d="M-414 -830H1586V1170H-414V-830Z" fill="white"/>
</mask>
<g mask="url(#mask1_2557_2)">
<path d="M144.562 249.941C144.562 249.941 144.562 249.98 144.606 249.98V249.941H144.562ZM144.562 249.941C144.562 249.941 144.562 249.98 144.606 249.98V249.941H144.562Z" fill="white"/>
<path d="M144.606 249.941V249.98C144.562 249.98 144.562 249.941 144.562 249.941H144.606Z" fill="white"/>
<path d="M144.606 249.941V249.98C144.562 249.98 144.562 249.941 144.562 249.941H144.606Z" fill="white"/>
<path d="M145.552 257.386C145.048 256.922 144.373 256.29 143.614 255.538C144.246 256.125 144.876 256.754 145.552 257.386Z" fill="white"/>
<path d="M144.079 257.382C144.416 257.675 144.755 258.014 145.091 258.306C144.92 258.14 144.543 257.846 144.079 257.382Z" fill="white"/>
<path d="M144.606 249.941V249.98C144.562 249.98 144.562 249.941 144.562 249.941H144.606Z" fill="white"/>
<path d="M145.552 257.386C145.048 256.922 144.373 256.29 143.614 255.538C144.246 256.125 144.876 256.754 145.552 257.386Z" fill="white"/>
<path d="M144.079 257.382C144.416 257.675 144.755 258.014 145.091 258.306C144.92 258.14 144.543 257.846 144.079 257.382Z" fill="white"/>
<path d="M143.617 255.536C144.376 256.294 145.045 256.925 145.555 257.384C144.879 256.758 144.249 256.126 143.617 255.536Z" fill="white"/>
<path d="M195.819 56.9938C195.478 57.0445 195.114 57.1178 194.746 57.1885Z" fill="white"/>
<path d="M100.843 70.6329C100.779 70.6329 100.716 70.6436 100.652 70.6489C100.764 70.6383 100.843 70.6329 100.843 70.6329Z" fill="white"/>
<path d="M100.633 70.6328C100.633 70.6328 100.55 70.6821 100.422 70.6821L100.466 70.6328H100.633Z" fill="white"/>
<path d="M183.331 40.7175L188.549 52.7082L201.566 53.9668L191.775 62.6388L194.598 75.4028L183.331 68.7748L172.065 75.4028L174.887 62.6388L165.097 53.9668L178.114 52.7082L183.331 40.7175Z" fill="white"/>
<path d="M242.297 0.481995L250.137 18.49L269.683 20.3793L254.983 33.402L259.226 52.5767L242.297 42.6193L225.367 52.5767L229.61 33.402L214.91 20.3793L234.457 18.49L242.297 0.481995Z" fill="white"/>
<path d="M295.889 40.7175L301.106 52.7082L314.124 53.9668L304.333 62.6388L307.161 75.4028L295.889 68.7748L284.622 75.4028L287.445 62.6388L277.654 53.9668L290.672 52.7082L295.889 40.7175Z" fill="white"/>
<path d="M240.646 299.977C209.785 293.912 125.889 274.421 66.5447 231.336C65.634 230.728 64.722 230.072 63.8167 229.421C63.6447 229.33 63.474 229.232 63.3007 229.048C63.2487 228.998 63.2487 228.998 63.1887 228.954C63.1887 228.954 63.1367 228.906 63.1367 228.864C56.9913 224.245 51.138 219.352 45.6273 214.173C41.934 210.678 38.3527 207.036 34.9967 203.258C34.654 202.889 30.5633 197.572 30.5047 197.48C5.72199 156.442 8.622 128.697 40.394 103.372C40.5073 103.329 40.566 103.232 40.6793 103.189C41.4793 102.533 42.2713 101.932 43.07 101.324C43.2353 101.184 43.4073 101.042 43.6393 100.95C44.9473 100.201 46.3087 99.4102 47.7287 98.7116C48.0127 98.5716 48.2967 98.4356 48.5807 98.2942C62.3367 91.3449 76.5487 86.1196 90.0207 82.2009C91.0967 81.8756 92.1807 81.5996 93.2567 81.3182C115.542 75.4902 137.769 72.4609 151.749 70.9169C144.474 71.5729 137.597 72.3636 131.003 73.2529C131.967 73.0622 132.879 72.9262 133.785 72.7862C135.946 72.5049 137.994 72.2222 139.93 71.9902C142.538 71.7129 144.931 71.4796 146.919 71.2476H147.091C149.761 71.0142 151.749 70.8236 152.998 70.7316C153.229 70.7316 153.394 70.7316 153.566 70.6836H153.797H153.85L153.91 70.6396H153.737C141.35 70.8729 130.151 71.6636 120.373 72.7369C120.03 72.7369 119.633 72.7862 119.295 72.8782C89.0553 76.7489 66.1487 84.9062 54.21 89.8982C52.9553 90.4555 51.878 90.9222 50.854 91.3876C42.8993 95.0742 35.4527 99.0849 28.9113 103.888C26.9233 105.336 25.046 106.825 23.23 108.457C22.206 109.346 21.13 110.42 20.046 111.536C19.4247 112.188 18.7967 112.89 18.1167 113.59C16.8673 115.032 15.5007 116.664 14.1913 118.393C13.57 119.276 12.8833 120.208 12.262 121.141C11.9793 121.564 11.634 121.98 11.41 122.446C2.53666 135.97 -4.56601 156.676 4.30066 184C4.35933 184.092 4.35933 184.189 4.414 184.33C7.314 193.096 11.8593 202.564 18.5127 212.678C51.482 260.198 87.4407 300.302 87.4407 300.302L240.646 299.977Z" fill="white"/>
<path d="M340.067 300.071C266.117 292.562 116.111 228.862 116.111 228.862H116.052C114.063 227.79 112.133 226.716 110.257 225.643C109.517 225.268 108.837 224.895 108.097 224.428C96.6666 217.854 86.492 211.328 77.5133 204.987C66.2613 196.264 58.3587 187.778 52.9547 179.76C43.7507 166.188 41.6507 154.019 42.4427 144.274C42.4947 144.083 42.4947 143.9 42.4947 143.71C42.5547 142.919 42.6147 142.171 42.7267 141.428C42.84 140.723 42.952 140.074 43.0707 139.374C43.1827 138.723 43.2947 138.068 43.468 137.418C43.6387 136.81 43.8027 136.203 43.9227 135.596V135.552V135.455C43.976 135.271 44.036 135.13 44.088 134.946C44.088 134.896 44.088 134.896 44.148 134.848C44.432 133.922 44.716 133.032 45 132.192C45.112 131.676 45.284 131.167 45.568 130.702C46.136 129.255 46.764 127.856 47.504 126.458C47.8413 125.758 48.184 125.151 48.528 124.592C49.32 123.096 50.06 122.028 50.5173 121.471C50.6293 121.33 50.7427 121.188 50.8533 120.999C77.4013 83.4151 157.947 72.0377 166.753 70.8724C155.673 71.8044 145.096 73.2031 135.324 74.8831C134.808 74.9751 134.353 75.0244 133.845 75.1164C42.9 88.3084 26.0707 124.502 25.1067 126.783C25.0467 126.831 25.0467 126.874 25.0467 126.874C21.3547 133.315 19.3653 139.84 18.7373 146.231C15.844 174.812 39.5427 201.583 53.9853 215.056C55.4067 216.363 56.7667 217.578 57.9627 218.603C58.988 219.491 60.064 220.375 61.028 221.215C62.5093 222.472 63.5853 223.356 64.2133 223.779C64.4373 223.963 64.6093 224.103 64.7213 224.152V224.196C138.501 282.019 250.729 300.302 250.729 300.302H340.008" fill="white"/>
<path d="M340.066 300.071H314.045V164.679H340.066V221.343L382.589 164.679H407.008L361.658 230.677L407.008 300.071H382.589L340.066 243.406V300.071Z" fill="white"/>
<path d="M276.41 209.871H238.691V181.779H276.41V209.871ZM276.41 164.679H238.691H212.982H212.67V286.817H238.691V243.407V226.969H276.41H302.431V219.813V217.027V209.871V200.899V190.749V181.779V174.623V171.835V164.679H276.41Z" fill="white"/>
<path d="M103.118 221.344V181.779H127.173V258.726H153.195V243.406V221.344V181.779H177.25V277.047H203.271V243.406V221.344V164.679H203.21H177.25H153.195H127.173H103.118H77.1567H77.0967V229.412H103.118V221.344Z" fill="white"/>
</g>
<path d="M993.61 127.456V46.8203H1017.43L1048.96 104.609H1049.2V46.8203H1066.67V127.456H1044.07L1011.33 68.0788H1011.08V127.456H993.61Z" fill="white"/>
<path d="M909.983 127.456L937.473 46.8203H960.442L987.687 127.456H968.628L949.079 61.237H948.469L928.921 127.456H909.983ZM924.767 112.306V99.6001H975.103V112.306H924.767ZM930.264 44.0103V31.3041L948.835 24.2179L967.528 31.3041V44.0103L948.835 36.9241L930.264 44.0103ZM942.116 21.0413L930.753 5.8916H950.546L957.876 21.0413H942.116Z" fill="white"/>
<path d="M839.817 127.456V46.8203H871.949C875.615 46.8203 879.036 47.1461 882.212 47.7977C885.47 48.3679 888.402 49.3045 891.009 50.6077C893.615 51.8295 895.855 53.3771 897.728 55.2504C899.683 57.1238 901.149 59.3636 902.127 61.9701C903.186 64.495 903.715 67.3865 903.715 70.6445C903.715 73.088 903.308 75.4501 902.493 77.7307C901.679 80.0113 900.376 82.0883 898.584 83.9616C896.792 85.7535 894.43 87.2603 891.498 88.4821C888.565 89.6224 885.063 90.4369 880.99 90.9256V91.903C886.04 92.1474 889.95 93.1655 892.719 94.9574C895.57 96.6678 897.728 98.9077 899.195 101.677C900.661 104.365 901.801 107.419 902.616 110.84L906.892 127.456H887.466L884.411 112.062C883.841 109.211 882.986 106.849 881.846 104.976C880.787 103.021 879.239 101.555 877.203 100.577C875.167 99.6001 872.438 99.1114 869.017 99.1114H857.411V127.456H839.817ZM857.411 85.3055H869.995C875.045 85.3055 878.873 84.3689 881.479 82.4955C884.167 80.5407 885.511 77.6085 885.511 73.6989C885.511 69.4635 884.248 66.3276 881.724 64.2914C879.28 62.1737 875.533 61.1148 870.483 61.1148H857.411V85.3055Z" fill="white"/>
<path d="M794.525 127.456V46.8203H812.118V127.456H794.525ZM773.755 61.9701V46.8203H832.888V61.9701H773.755Z" fill="white"/>
<path d="M706.83 127.456V46.8203H724.424V127.456H706.83ZM686.061 61.9701V46.8203H745.193V61.9701H686.061Z" fill="white"/>
<path d="M617.191 127.456L644.681 46.8203H667.65L694.895 127.456H675.836L656.288 61.237H655.677L636.129 127.456H617.191ZM631.975 112.306V99.6001H682.311V112.306H631.975ZM656.776 149.936C653.355 149.936 650.749 149.203 648.957 147.737C647.165 146.271 646.269 144.194 646.269 141.506C646.269 138.737 647.165 136.619 648.957 135.153C650.749 133.687 653.355 132.954 656.776 132.954C660.197 132.954 662.804 133.687 664.595 135.153C666.469 136.619 667.405 138.737 667.405 141.506C667.405 144.194 666.469 146.271 664.595 147.737C662.804 149.203 660.197 149.936 656.776 149.936Z" fill="white"/>
<path d="M582.635 129.166C578.155 129.166 574.123 128.637 570.54 127.578C566.956 126.601 563.82 125.175 561.132 123.302C558.526 121.347 556.327 119.026 554.535 116.338C552.824 113.569 551.521 110.474 550.625 107.053C549.811 103.632 549.403 99.9259 549.403 95.9348V46.8203H566.997V94.9574C566.997 99.1928 567.607 102.695 568.829 105.464C570.132 108.152 571.924 110.148 574.205 111.451C576.567 112.754 579.377 113.406 582.635 113.406C585.974 113.406 588.784 112.754 591.065 111.451C593.427 110.148 595.219 108.152 596.441 105.464C597.663 102.695 598.273 99.1928 598.273 94.9574V46.8203H615.989V95.9348C615.989 106.523 613.138 114.709 607.437 120.492C601.735 126.275 593.468 129.166 582.635 129.166Z" fill="white"/>
<path d="M540.093 145.661C534.718 146.801 530.075 147.493 526.165 147.738C522.337 148.063 518.957 148.063 516.025 147.738C513.093 147.493 510.201 147.045 507.35 146.394C504.5 145.824 501.405 145.253 498.065 144.683C494.726 144.113 490.775 143.665 486.214 143.339C481.653 143.014 476.114 143.054 469.598 143.461V128.8C472.123 128.963 474.933 129.004 478.028 128.923C481.123 128.841 484.381 128.678 487.802 128.434C491.223 128.19 494.603 127.823 497.943 127.334C501.282 126.846 504.377 126.235 507.228 125.502C510.079 124.687 512.482 123.751 514.437 122.692V121.836C508.328 123.628 502.789 124.402 497.821 124.158C492.852 123.913 488.495 122.855 484.748 120.981C481.001 119.108 477.865 116.501 475.34 113.162C472.816 109.823 470.901 105.954 469.598 101.555C468.377 97.157 467.766 92.3108 467.766 87.0165C467.766 80.8263 468.539 75.1655 470.087 70.0341C471.716 64.9028 474.078 60.5044 477.173 56.8392C480.268 53.0925 484.096 50.201 488.658 48.1647C493.3 46.1285 498.635 45.1104 504.663 45.1104C512.237 45.1104 518.753 46.7801 524.211 50.1195C529.668 53.3775 533.781 58.1424 536.55 64.4141C539.401 70.6043 540.826 78.0977 540.826 86.8943C540.826 94.3877 539.768 100.741 537.65 105.954C535.614 111.085 532.722 115.32 528.975 118.66C525.31 121.999 520.912 124.606 515.781 126.479C510.731 128.352 505.192 129.737 499.165 130.633L499.287 131.366C504.011 132.099 508.165 132.669 511.749 133.077C515.414 133.565 518.753 133.81 521.767 133.81C524.862 133.81 527.876 133.565 530.808 133.077C533.74 132.588 536.835 131.773 540.093 130.633V145.661ZM504.418 115.483C507.758 115.483 510.771 114.628 513.459 112.918C516.147 111.126 518.305 108.234 519.934 104.243C521.645 100.171 522.5 94.7543 522.5 87.9939C522.5 81.4779 521.767 76.1429 520.301 71.9889C518.916 67.835 516.839 64.7399 514.07 62.7036C511.382 60.6673 508.083 59.6492 504.174 59.6492C500.997 59.6492 498.024 60.5452 495.255 62.3371C492.567 64.129 490.368 67.0612 488.658 71.1337C487.029 75.2062 486.214 80.6634 486.214 87.5052C486.214 94.347 486.988 99.8449 488.535 103.999C490.164 108.071 492.364 111.004 495.133 112.795C497.984 114.587 501.079 115.483 504.418 115.483Z" fill="white"/>
<path d="M1147.16 281.281C1143.47 281.281 1140.52 280.988 1138.3 280.401C1136.08 279.857 1134.47 279.061 1133.46 278.013C1132.5 276.966 1132.01 275.71 1132.01 274.243C1132.01 272.4 1132.75 270.892 1134.21 269.719C1135.72 268.546 1137.94 267.771 1140.87 267.394V266.703C1138.61 266.703 1136.87 266.41 1135.66 265.823C1134.49 265.195 1133.9 264.252 1133.9 262.996C1133.9 261.823 1134.47 260.775 1135.6 259.854C1136.73 258.932 1138.61 258.325 1141.25 258.032V257.215C1138.82 256.838 1136.89 255.895 1135.47 254.387C1134.09 252.837 1133.4 250.868 1133.4 248.481C1133.4 246.344 1133.96 244.48 1135.09 242.888C1136.27 241.254 1137.94 239.977 1140.12 239.055C1142.34 238.092 1145 237.61 1148.1 237.61H1164.69V244.648L1153.82 243.265V244.145C1156.88 244.564 1158.99 245.318 1160.17 246.407C1161.38 247.496 1161.99 248.858 1161.99 250.491C1161.99 252.125 1161.48 253.591 1160.48 254.89C1159.47 256.147 1157.97 257.152 1155.96 257.906C1153.94 258.618 1151.45 258.974 1148.48 258.974C1147.77 258.974 1147.01 258.953 1146.22 258.911C1145.46 258.828 1144.58 258.702 1143.58 258.534C1142.7 258.995 1142.03 259.435 1141.57 259.854C1141.1 260.231 1140.87 260.608 1140.87 260.985C1140.87 261.236 1141 261.446 1141.25 261.613C1141.54 261.739 1141.9 261.844 1142.32 261.927C1142.78 261.969 1143.28 261.99 1143.83 261.99H1153.57C1154.41 261.99 1155.47 262.053 1156.77 262.179C1158.11 262.263 1159.43 262.577 1160.73 263.121C1162.07 263.624 1163.18 264.483 1164.06 265.698C1164.98 266.871 1165.44 268.525 1165.44 270.662C1165.44 273.091 1164.77 275.081 1163.43 276.631C1162.13 278.223 1160.12 279.396 1157.4 280.15C1154.72 280.904 1151.31 281.281 1147.16 281.281ZM1147.47 273.615C1150.24 273.615 1152.33 273.489 1153.76 273.238C1155.22 272.987 1156.23 272.61 1156.77 272.107C1157.32 271.646 1157.59 271.06 1157.59 270.347C1157.59 269.635 1157.4 269.07 1157.02 268.651C1156.69 268.232 1156.23 267.939 1155.64 267.771C1155.1 267.562 1154.53 267.457 1153.94 267.457C1153.36 267.415 1152.86 267.394 1152.44 267.394H1144.27C1142.63 267.771 1141.48 268.253 1140.81 268.839C1140.18 269.426 1139.87 270.117 1139.87 270.913C1139.87 271.667 1140.16 272.233 1140.75 272.61C1141.34 273.028 1142.19 273.301 1143.33 273.426C1144.5 273.552 1145.88 273.615 1147.47 273.615ZM1148.04 254.01C1149.8 254.01 1151.14 253.549 1152.06 252.628C1153.02 251.664 1153.5 250.387 1153.5 248.795C1153.5 247.203 1153 245.904 1152 244.899C1151.03 243.852 1149.69 243.328 1147.97 243.328C1146.26 243.328 1144.9 243.852 1143.89 244.899C1142.93 245.904 1142.45 247.203 1142.45 248.795C1142.45 249.842 1142.65 250.764 1143.07 251.559C1143.53 252.314 1144.18 252.921 1145.02 253.382C1145.86 253.801 1146.86 254.01 1148.04 254.01Z" fill="white"/>
<path d="M1097.39 270.788V252V237.799H1105L1104.87 250.115H1105.62C1106 247.14 1106.65 244.69 1107.57 242.763C1108.49 240.794 1109.73 239.328 1111.28 238.364C1112.87 237.401 1114.8 236.919 1117.06 236.919C1120.75 236.919 1123.53 238.197 1125.42 240.752C1127.3 243.265 1128.25 247.161 1128.25 252.439V270.788H1119.2V253.445C1119.2 250.429 1118.76 248.229 1117.88 246.847C1117 245.423 1115.64 244.711 1113.79 244.711C1112.24 244.711 1110.92 245.213 1109.83 246.219C1108.75 247.224 1107.91 248.732 1107.32 250.743C1106.73 252.712 1106.44 255.183 1106.44 258.158V270.788H1097.39Z" fill="white"/>
<path d="M1085.54 239.872H1081.52L1079.89 237.736C1081.82 237.736 1083.2 237.463 1084.04 236.919C1084.92 236.332 1085.44 235.557 1085.61 234.594C1085.77 233.63 1085.8 232.583 1085.67 231.452H1092.2C1092.62 233.463 1092.67 235.201 1092.33 236.668C1092 238.134 1091.26 239.181 1090.13 239.809C1089.04 240.396 1087.51 240.417 1085.54 239.872ZM1074.74 271.667C1071.51 271.667 1068.66 271.018 1066.19 269.719C1063.72 268.421 1061.77 266.494 1060.35 263.938C1058.96 261.341 1058.27 258.116 1058.27 254.262C1058.27 250.324 1058.99 247.077 1060.41 244.522C1061.88 241.967 1063.84 240.061 1066.32 238.804C1068.83 237.547 1071.66 236.919 1074.8 236.919C1078.02 236.919 1080.87 237.568 1083.35 238.867C1085.82 240.165 1087.74 242.092 1089.13 244.648C1090.51 247.203 1091.2 250.429 1091.2 254.325C1091.2 258.304 1090.47 261.572 1089 264.127C1087.58 266.682 1085.61 268.588 1083.09 269.845C1080.62 271.06 1077.84 271.667 1074.74 271.667ZM1074.99 264.881C1076.5 264.881 1077.77 264.504 1078.82 263.75C1079.87 262.954 1080.66 261.802 1081.21 260.294C1081.8 258.786 1082.09 256.964 1082.09 254.827C1082.09 252.523 1081.8 250.575 1081.21 248.983C1080.62 247.392 1079.76 246.177 1078.63 245.339C1077.5 244.459 1076.14 244.019 1074.55 244.019C1073.04 244.019 1071.74 244.417 1070.65 245.213C1069.6 245.967 1068.81 247.119 1068.26 248.669C1067.72 250.177 1067.45 252.021 1067.45 254.199C1067.45 257.592 1068.1 260.231 1069.4 262.116C1070.74 263.959 1072.6 264.881 1074.99 264.881ZM1075.18 283.229C1073.42 283.229 1072.08 282.852 1071.15 282.098C1070.23 281.386 1069.77 280.318 1069.77 278.893C1069.77 277.469 1070.23 276.38 1071.15 275.626C1072.12 274.872 1073.46 274.495 1075.18 274.495C1076.98 274.495 1078.34 274.872 1079.26 275.626C1080.22 276.38 1080.71 277.469 1080.71 278.893C1080.71 280.276 1080.22 281.344 1079.26 282.098C1078.34 282.852 1076.98 283.229 1075.18 283.229Z" fill="white"/>
<path d="M1032.9 271.667C1029.18 271.667 1026.39 270.369 1024.55 267.771C1022.75 265.174 1021.85 261.195 1021.85 255.833V237.799H1030.89V255.33C1030.89 258.346 1031.31 260.524 1032.15 261.865C1033.03 263.205 1034.33 263.876 1036.05 263.876C1037.18 263.876 1038.16 263.603 1039 263.059C1039.88 262.514 1040.63 261.697 1041.26 260.608C1041.89 259.519 1042.37 258.179 1042.71 256.587C1043.04 254.995 1043.21 253.152 1043.21 251.057V237.799H1052.26V256.21L1052.32 270.788H1044.66L1044.78 258.786H1044.03C1043.65 261.802 1043 264.253 1042.08 266.138C1041.16 268.023 1039.94 269.426 1038.43 270.348C1036.93 271.227 1035.08 271.667 1032.9 271.667ZM1052.7 239.998L1046.79 239.432L1046.92 237.799C1048.22 237.799 1049.22 237.61 1049.93 237.233C1050.65 236.856 1051.13 236.353 1051.38 235.725C1051.67 235.097 1051.82 234.385 1051.82 233.589C1051.86 232.793 1051.82 231.955 1051.69 231.075H1058.79C1059.3 233.505 1059.3 235.474 1058.79 236.982C1058.33 238.448 1057.56 239.432 1056.47 239.935C1055.38 240.438 1054.12 240.459 1052.7 239.998Z" fill="white"/>
<path d="M995.961 270.787L985.279 237.798H995.082L1001.81 263.373H1002.37L1009.28 237.798H1018.58L1007.84 270.787H995.961Z" fill="white"/>
<path d="M937.725 270.788V252.439V226.614H946.773V235.788C946.773 236.626 946.731 237.652 946.647 238.867C946.564 240.082 946.438 241.359 946.27 242.7C946.103 244.04 945.935 245.381 945.768 246.721C945.6 248.02 945.453 249.193 945.328 250.24H946.207C946.668 247.266 947.359 244.794 948.281 242.825C949.203 240.815 950.438 239.328 951.988 238.364C953.538 237.401 955.423 236.919 957.644 236.919C961.33 236.919 964.074 238.218 965.875 240.815C967.676 243.412 968.577 247.371 968.577 252.691V270.788H959.529V253.508C959.529 250.491 959.089 248.271 958.209 246.847C957.371 245.423 956.052 244.711 954.251 244.711C952.701 244.711 951.381 245.234 950.292 246.281C949.203 247.329 948.344 248.858 947.716 250.869C947.129 252.879 946.815 255.33 946.773 258.22V270.788H937.725Z" fill="white"/>
<path d="M901.029 270.788V252V237.799H908.632L908.507 250.115H909.261C909.638 247.14 910.287 244.69 911.209 242.763C912.13 240.794 913.366 239.328 914.916 238.364C916.508 237.401 918.435 236.919 920.697 236.919C924.383 236.919 927.169 238.197 929.054 240.752C930.939 243.265 931.882 247.161 931.882 252.439V270.788H922.833V253.445C922.833 250.429 922.394 248.229 921.514 246.847C920.634 245.423 919.273 244.711 917.43 244.711C915.88 244.711 914.56 245.213 913.471 246.219C912.382 247.224 911.544 248.732 910.957 250.743C910.371 252.712 910.078 255.183 910.078 258.158V270.788H901.029Z" fill="white"/>
<path d="M885.689 270.787V237.798H894.737V270.787H885.689ZM890.15 234.091C888.391 234.091 887.05 233.735 886.128 233.023C885.207 232.269 884.746 231.18 884.746 229.755C884.746 228.331 885.207 227.242 886.128 226.488C887.092 225.734 888.432 225.357 890.15 225.357C891.951 225.357 893.313 225.734 894.234 226.488C895.198 227.242 895.68 228.331 895.68 229.755C895.68 231.138 895.198 232.206 894.234 232.96C893.313 233.714 891.951 234.091 890.15 234.091ZM890.339 283.229C888.579 283.229 887.239 282.852 886.317 282.098C885.395 281.386 884.935 280.318 884.935 278.893C884.935 277.469 885.395 276.38 886.317 275.626C887.28 274.872 888.621 274.495 890.339 274.495C892.14 274.495 893.501 274.872 894.423 275.626C895.386 276.38 895.868 277.469 895.868 278.893C895.868 280.276 895.386 281.344 894.423 282.098C893.501 282.852 892.14 283.229 890.339 283.229Z" fill="white"/>
<path d="M848.994 270.788V252.439V226.614H858.043V235.788C858.043 236.626 858.001 237.652 857.917 238.867C857.833 240.082 857.707 241.359 857.54 242.7C857.372 244.04 857.205 245.381 857.037 246.721C856.87 248.02 856.723 249.193 856.597 250.24H857.477C857.938 247.266 858.629 244.794 859.551 242.825C860.472 240.815 861.708 239.328 863.258 238.364C864.808 237.401 866.693 236.919 868.913 236.919C872.6 236.919 875.343 238.218 877.145 240.815C878.946 243.412 879.847 247.371 879.847 252.691V270.788H870.798V253.508C870.798 250.491 870.358 248.271 869.479 246.847C868.641 245.423 867.321 244.711 865.52 244.711C863.97 244.711 862.651 245.234 861.561 246.281C860.472 247.329 859.613 248.858 858.985 250.869C858.399 252.879 858.084 255.33 858.043 258.22V270.788H848.994Z" fill="white"/>
<path d="M837.996 271.541C834.31 271.541 831.566 270.578 829.765 268.651C828.005 266.724 827.126 263.729 827.126 259.665V244.899H822.979L823.041 238.552H824.675C826.56 238.385 827.922 237.861 828.759 236.982C829.597 236.102 830.121 234.699 830.33 232.772L830.645 230.384H835.923V237.798H844.029V245.15H835.923V259.037C835.923 260.587 836.3 261.718 837.054 262.43C837.808 263.1 838.834 263.436 840.133 263.436C840.845 263.436 841.536 263.352 842.206 263.184C842.919 263.017 843.547 262.744 844.091 262.367V270.599C842.835 270.976 841.704 271.227 840.698 271.353C839.693 271.479 838.792 271.541 837.996 271.541Z" fill="white"/>
<path d="M785.368 271.667C783.609 271.667 781.996 271.353 780.53 270.724C779.064 270.054 777.891 269.049 777.011 267.708C776.131 266.368 775.691 264.629 775.691 262.493C775.691 260.566 776.068 258.995 776.822 257.78C777.577 256.524 778.603 255.518 779.901 254.764C781.242 253.968 782.792 253.361 784.551 252.942C786.311 252.481 788.175 252.083 790.144 251.748C792.029 251.413 793.474 251.141 794.479 250.931C795.485 250.68 796.176 250.366 796.553 249.989C796.972 249.612 797.181 249.067 797.181 248.355C797.181 247.056 796.7 246.009 795.736 245.213C794.815 244.417 793.495 244.019 791.777 244.019C790.73 244.019 789.704 244.229 788.698 244.647C787.693 245.024 786.834 245.653 786.122 246.533C785.452 247.412 785.054 248.606 784.928 250.114L776.885 248.732C777.053 246.554 777.577 244.71 778.456 243.202C779.378 241.694 780.551 240.479 781.975 239.558C783.399 238.636 784.97 237.966 786.688 237.547C788.447 237.128 790.248 236.919 792.092 236.919C795.233 236.919 797.831 237.484 799.883 238.615C801.936 239.704 803.465 241.359 804.47 243.579C805.518 245.758 806.041 248.48 806.041 251.748V257.592C806.041 259.016 806.041 260.482 806.041 261.99C806.083 263.456 806.125 264.923 806.167 266.389C806.251 267.855 806.314 269.321 806.355 270.787H798.375C798.333 269.405 798.291 267.96 798.25 266.452C798.208 264.944 798.187 263.373 798.187 261.739H797.496C797.119 263.54 796.385 265.195 795.296 266.703C794.207 268.211 792.825 269.426 791.149 270.347C789.473 271.227 787.547 271.667 785.368 271.667ZM789.013 265.006C789.85 265.006 790.709 264.86 791.589 264.567C792.469 264.231 793.306 263.75 794.102 263.121C794.898 262.451 795.569 261.592 796.113 260.545C796.7 259.498 797.077 258.262 797.244 256.838V253.822H798.815C798.271 254.366 797.537 254.806 796.616 255.141C795.736 255.476 794.752 255.728 793.663 255.895C792.615 256.063 791.547 256.251 790.458 256.461C789.411 256.67 788.447 256.942 787.567 257.278C786.688 257.613 785.976 258.073 785.431 258.66C784.886 259.246 784.614 260.063 784.614 261.111C784.614 262.325 785.033 263.289 785.871 264.001C786.709 264.671 787.756 265.006 789.013 265.006ZM788.761 234.217L782.541 225.294H792.217L796.365 234.217H788.761Z" fill="white"/>
<path d="M740.441 270.788V252.439V226.614H749.49V235.788C749.49 236.626 749.448 237.652 749.364 238.867C749.28 240.082 749.155 241.359 748.987 242.7C748.82 244.04 748.652 245.381 748.484 246.721C748.317 248.02 748.17 249.193 748.045 250.24H748.924C749.385 247.266 750.076 244.794 750.998 242.825C751.919 240.815 753.155 239.328 754.705 238.364C756.255 237.401 758.14 236.919 760.36 236.919C764.047 236.919 766.791 238.218 768.592 240.815C770.393 243.412 771.294 247.371 771.294 252.691V270.788H762.246V253.508C762.246 250.491 761.806 248.271 760.926 246.847C760.088 245.423 758.769 244.711 756.967 244.711C755.417 244.711 754.098 245.234 753.009 246.281C751.919 247.329 751.061 248.858 750.432 250.869C749.846 252.879 749.532 255.33 749.49 258.22V270.788H740.441Z" fill="white"/>
<path d="M703.746 270.788V252V237.799H711.349L711.224 250.115H711.978C712.355 247.14 713.004 244.69 713.926 242.763C714.847 240.794 716.083 239.328 717.633 238.364C719.225 237.401 721.152 236.919 723.414 236.919C727.1 236.919 729.886 238.197 731.771 240.752C733.656 243.265 734.599 247.161 734.599 252.439V270.788H725.55V253.445C725.55 250.429 725.11 248.229 724.231 246.847C723.351 245.423 721.99 244.711 720.146 244.711C718.596 244.711 717.277 245.213 716.188 246.219C715.098 247.224 714.261 248.732 713.674 250.743C713.088 252.712 712.794 255.183 712.794 258.158V270.788H703.746Z" fill="white"/>
<path d="M674.844 270.787V237.798H683.892V270.787H674.844ZM679.305 234.091C677.546 234.091 676.205 233.735 675.284 233.023C674.362 232.269 673.901 231.18 673.901 229.755C673.901 228.331 674.362 227.242 675.284 226.488C676.247 225.734 677.588 225.357 679.305 225.357C681.107 225.357 682.468 225.734 683.39 226.488C684.353 227.242 684.835 228.331 684.835 229.755C684.835 231.138 684.353 232.206 683.39 232.96C682.468 233.714 681.107 234.091 679.305 234.091Z" fill="white"/>
<path d="M653.354 271.667C650.128 271.667 647.28 271.018 644.808 269.719C642.336 268.42 640.389 266.493 638.964 263.938C637.582 261.341 636.891 258.115 636.891 254.261C636.891 250.324 637.603 247.077 639.027 244.522C640.493 241.966 642.462 240.06 644.934 238.804C647.447 237.547 650.275 236.919 653.417 236.919C656.642 236.919 659.491 237.568 661.962 238.867C664.434 240.165 666.361 242.092 667.743 244.647C669.126 247.203 669.817 250.428 669.817 254.324C669.817 258.304 669.084 261.571 667.617 264.127C666.193 266.682 664.224 268.588 661.711 269.845C659.239 271.06 656.454 271.667 653.354 271.667ZM653.605 264.881C655.113 264.881 656.391 264.504 657.438 263.75C658.485 262.954 659.281 261.802 659.826 260.294C660.412 258.786 660.706 256.963 660.706 254.827C660.706 252.523 660.412 250.575 659.826 248.983C659.239 247.391 658.381 246.176 657.25 245.339C656.118 244.459 654.757 244.019 653.165 244.019C651.657 244.019 650.359 244.417 649.269 245.213C648.222 245.967 647.426 247.119 646.882 248.669C646.337 250.177 646.065 252.02 646.065 254.199C646.065 257.592 646.714 260.231 648.013 262.116C649.353 263.959 651.217 264.881 653.605 264.881ZM643.488 235.662V229.001L653.417 224.477L663.282 229.001V235.662L653.417 231.138L643.488 235.662Z" fill="white"/>
<path d="M616.794 281.281C613.108 281.281 610.154 280.988 607.934 280.401C605.714 279.857 604.101 279.061 603.096 278.013C602.132 276.966 601.65 275.71 601.65 274.243C601.65 272.4 602.383 270.892 603.85 269.719C605.358 268.546 607.578 267.771 610.51 267.394V266.703C608.248 266.703 606.51 266.41 605.295 265.823C604.122 265.195 603.535 264.252 603.535 262.996C603.535 261.823 604.101 260.775 605.232 259.854C606.363 258.932 608.248 258.325 610.887 258.032V257.215C608.458 256.838 606.531 255.895 605.106 254.387C603.724 252.837 603.033 250.868 603.033 248.481C603.033 246.344 603.598 244.48 604.729 242.888C605.902 241.254 607.578 239.977 609.756 239.055C611.976 238.092 614.637 237.61 617.736 237.61H634.325V244.648L623.455 243.265V244.145C626.513 244.564 628.628 245.318 629.801 246.407C631.016 247.496 631.623 248.858 631.623 250.491C631.623 252.125 631.121 253.591 630.115 254.89C629.11 256.147 627.602 257.152 625.591 257.906C623.58 258.618 621.088 258.974 618.113 258.974C617.401 258.974 616.647 258.953 615.851 258.911C615.097 258.828 614.218 258.702 613.212 258.534C612.333 258.995 611.662 259.435 611.201 259.854C610.741 260.231 610.51 260.608 610.51 260.985C610.51 261.236 610.636 261.446 610.887 261.613C611.181 261.739 611.537 261.844 611.956 261.927C612.416 261.969 612.919 261.99 613.464 261.99H623.203C624.041 261.99 625.109 262.053 626.408 262.179C627.748 262.263 629.068 262.577 630.367 263.121C631.707 263.624 632.817 264.483 633.697 265.698C634.618 266.871 635.079 268.525 635.079 270.662C635.079 273.091 634.409 275.081 633.068 276.631C631.77 278.223 629.759 279.396 627.036 280.15C624.355 280.904 620.941 281.281 616.794 281.281ZM617.108 273.615C619.873 273.615 621.967 273.489 623.392 273.238C624.858 272.987 625.863 272.61 626.408 272.107C626.952 271.646 627.225 271.06 627.225 270.347C627.225 269.635 627.036 269.07 626.659 268.651C626.324 268.232 625.863 267.939 625.277 267.771C624.732 267.562 624.167 267.457 623.58 267.457C622.994 267.415 622.491 267.394 622.072 267.394H613.903C612.27 267.771 611.118 268.253 610.447 268.839C609.819 269.426 609.505 270.117 609.505 270.913C609.505 271.667 609.798 272.233 610.385 272.61C610.971 273.028 611.83 273.301 612.961 273.426C614.134 273.552 615.516 273.615 617.108 273.615ZM617.674 254.01C619.433 254.01 620.774 253.549 621.695 252.628C622.659 251.664 623.14 250.387 623.14 248.795C623.14 247.203 622.638 245.904 621.632 244.899C620.669 243.852 619.328 243.328 617.611 243.328C615.893 243.328 614.532 243.852 613.526 244.899C612.563 245.904 612.081 247.203 612.081 248.795C612.081 249.842 612.291 250.764 612.71 251.559C613.17 252.314 613.82 252.921 614.657 253.382C615.495 253.801 616.501 254.01 617.674 254.01Z" fill="white"/>
<path d="M567.028 270.788V252V237.799H574.631L574.506 250.115H575.26C575.637 247.14 576.286 244.69 577.208 242.763C578.129 240.794 579.365 239.328 580.915 238.364C582.507 237.401 584.434 236.919 586.696 236.919C590.382 236.919 593.168 238.197 595.053 240.752C596.938 243.265 597.881 247.161 597.881 252.439V270.788H588.832V253.445C588.832 250.429 588.393 248.229 587.513 246.847C586.633 245.423 585.272 244.711 583.429 244.711C581.879 244.711 580.559 245.213 579.47 246.219C578.381 247.224 577.543 248.732 576.956 250.743C576.37 252.712 576.077 255.183 576.077 258.158V270.788H567.028Z" fill="white"/>
<path d="M531.977 271.667C528.751 271.667 525.903 271.018 523.431 269.719C520.959 268.421 519.012 266.494 517.587 263.938C516.205 261.341 515.514 258.116 515.514 254.262C515.514 250.324 516.226 247.077 517.65 244.522C519.116 241.967 521.085 240.061 523.557 238.804C526.07 237.547 528.898 236.919 532.04 236.919C535.265 236.919 538.114 237.568 540.585 238.867C543.057 240.165 544.984 242.092 546.366 244.648C547.749 247.203 548.44 250.429 548.44 254.325C548.44 258.304 547.707 261.572 546.241 264.127C544.816 266.682 542.847 268.588 540.334 269.845C537.862 271.06 535.077 271.667 531.977 271.667ZM532.228 264.881C533.736 264.881 535.014 264.504 536.061 263.75C537.108 262.954 537.904 261.802 538.449 260.294C539.035 258.786 539.329 256.964 539.329 254.827C539.329 252.523 539.035 250.575 538.449 248.983C537.862 247.392 537.004 246.177 535.873 245.339C534.742 244.459 533.38 244.019 531.788 244.019C530.28 244.019 528.982 244.417 527.892 245.213C526.845 245.967 526.049 247.119 525.505 248.669C524.96 250.177 524.688 252.021 524.688 254.199C524.688 257.592 525.337 260.231 526.636 262.116C527.976 263.959 529.84 264.881 532.228 264.881Z" fill="white"/>
<path d="M480.138 270.788V252.439V226.614H489.186V235.788C489.186 236.626 489.144 237.652 489.06 238.867C488.977 240.082 488.851 241.359 488.683 242.7C488.516 244.04 488.348 245.381 488.181 246.721C488.013 248.02 487.867 249.193 487.741 250.24H488.621C489.081 247.266 489.773 244.794 490.694 242.825C491.616 240.815 492.852 239.328 494.401 238.364C495.951 237.401 497.837 236.919 500.057 236.919C503.743 236.919 506.487 238.218 508.288 240.815C510.09 243.412 510.99 247.371 510.99 252.691V270.788H501.942V253.508C501.942 250.491 501.502 248.271 500.622 246.847C499.784 245.423 498.465 244.711 496.664 244.711C495.114 244.711 493.794 245.234 492.705 246.281C491.616 247.329 490.757 248.858 490.129 250.869C489.542 252.879 489.228 255.33 489.186 258.22V270.788H480.138Z" fill="white"/>
<path d="M461.169 271.667C458.321 271.667 455.849 271.248 453.755 270.411C451.66 269.531 449.922 268.316 448.539 266.766C447.157 265.216 446.131 263.415 445.46 261.362C444.79 259.31 444.455 257.068 444.455 254.639C444.455 252.167 444.79 249.884 445.46 247.79C446.173 245.653 447.199 243.768 448.539 242.134C449.922 240.459 451.639 239.181 453.692 238.301C455.745 237.38 458.174 236.919 460.981 236.919C464.081 236.919 466.657 237.484 468.71 238.616C470.762 239.705 472.291 241.192 473.297 243.077C474.344 244.92 474.868 246.952 474.868 249.172L466.762 250.743C466.762 249.235 466.511 247.999 466.008 247.036C465.505 246.03 464.793 245.276 463.871 244.773C462.992 244.271 461.944 244.019 460.73 244.019C459.599 244.019 458.593 244.229 457.714 244.648C456.876 245.067 456.143 245.716 455.514 246.596C454.928 247.434 454.467 248.502 454.132 249.8C453.797 251.057 453.629 252.544 453.629 254.262C453.629 256.524 453.922 258.451 454.509 260.043C455.095 261.634 455.954 262.828 457.085 263.624C458.258 264.42 459.661 264.818 461.295 264.818C462.971 264.818 464.269 264.462 465.191 263.75C466.154 263.038 466.825 262.116 467.202 260.985C467.579 259.854 467.746 258.702 467.704 257.529L475.936 258.472C475.978 260.231 475.706 261.907 475.119 263.499C474.575 265.09 473.695 266.515 472.48 267.771C471.307 268.986 469.778 269.95 467.893 270.662C466.008 271.332 463.767 271.667 461.169 271.667Z" fill="white"/>
<mask id="mask2_2557_2" style="mask-type:luminance" maskUnits="userSpaceOnUse" x="-414" y="-830" width="2000" height="2000">
<path d="M-414 -830H1586V1170H-414V-830Z" fill="white"/>
</mask>
<g mask="url(#mask2_2557_2)">
<path fill-rule="evenodd" clip-rule="evenodd" d="M1097.73 191.457H442.634V200.192H1097.73V191.457Z" fill="white"/>
</g>
</g>
</svg>
