<svg width="702" height="403" viewBox="0 0 702 403" fill="none" xmlns="http://www.w3.org/2000/svg">
<path d="M302.173 204.243C302.173 204.243 302.173 204.275 302.209 204.275V204.243H302.173ZM302.173 204.243C302.173 204.243 302.173 204.275 302.209 204.275V204.243H302.173Z" fill="white"/>
<path d="M302.208 204.243V204.275C302.172 204.275 302.172 204.243 302.172 204.243H302.208Z" fill="white"/>
<path d="M302.208 204.243V204.275C302.172 204.275 302.172 204.243 302.172 204.243H302.208Z" fill="white"/>
<path d="M302.982 210.339C302.569 209.959 302.017 209.442 301.396 208.826C301.913 209.306 302.429 209.822 302.982 210.339Z" fill="white"/>
<path d="M301.777 210.335C302.053 210.575 302.33 210.852 302.606 211.092C302.466 210.956 302.157 210.715 301.777 210.335Z" fill="white"/>
<path d="M302.208 204.243V204.275C302.172 204.275 302.172 204.243 302.172 204.243H302.208Z" fill="white"/>
<path d="M302.982 210.339C302.569 209.959 302.017 209.442 301.396 208.826C301.913 209.306 302.429 209.822 302.982 210.339Z" fill="white"/>
<path d="M301.777 210.335C302.053 210.575 302.33 210.852 302.606 211.092C302.466 210.956 302.157 210.715 301.777 210.335Z" fill="white"/>
<path d="M301.398 208.824C302.019 209.445 302.567 209.961 302.984 210.337C302.431 209.825 301.915 209.308 301.398 208.824Z" fill="white"/>
<path d="M344.139 46.2687C343.86 46.3097 343.562 46.3697 343.26 46.4287Z" fill="white"/>
<path d="M266.378 57.4357C266.326 57.4357 266.274 57.4447 266.222 57.4487C266.314 57.4397 266.378 57.4357 266.378 57.4357Z" fill="white"/>
<path d="M266.205 57.4356C266.205 57.4356 266.137 57.4756 266.033 57.4756L266.069 57.4356H266.205Z" fill="white"/>
<path d="M333.914 32.9428L338.186 42.7598L348.844 43.7908L340.828 50.8908L343.139 61.3408L333.914 55.9148L324.689 61.3408L327 50.8908L318.984 43.7908L329.642 42.7598L333.914 32.9428Z" fill="white"/>
<path d="M382.193 -0.000144958L388.612 14.7439L404.616 16.2909L392.58 26.9529L396.054 42.6519L382.193 34.4999L368.332 42.6519L371.806 26.9529L359.77 16.2909L375.774 14.7439L382.193 -0.000144958Z" fill="white"/>
<path d="M426.07 32.9428L430.342 42.7598L441 43.7908L432.984 50.8908L435.299 61.3408L426.07 55.9148L416.845 61.3408L419.156 50.8908L411.14 43.7908L421.798 42.7598L426.07 32.9428Z" fill="white"/>
<path d="M380.84 245.21C355.572 240.244 286.883 224.286 238.296 189.01C237.55 188.513 236.803 187.975 236.062 187.443C235.921 187.368 235.781 187.288 235.64 187.137C235.597 187.097 235.597 187.097 235.548 187.061C235.548 187.061 235.505 187.021 235.505 186.986C230.474 183.205 225.681 179.198 221.17 174.959C218.146 172.097 215.214 169.115 212.466 166.022C212.185 165.72 208.836 161.366 208.788 161.291C188.497 127.692 190.872 104.975 216.885 84.2406C216.978 84.2056 217.026 84.1256 217.118 84.0906C217.773 83.5536 218.422 83.0606 219.076 82.5636C219.211 82.4486 219.352 82.3326 219.542 82.2576C220.613 81.6446 221.727 80.9966 222.89 80.4246C223.123 80.3096 223.355 80.1986 223.588 80.0826C234.85 74.3936 246.486 70.1156 257.516 66.9066C258.397 66.6406 259.285 66.4146 260.166 66.1836C278.412 61.4126 296.61 58.9326 308.056 57.6676C302.1 58.2046 296.469 58.8526 291.071 59.5806C291.86 59.4246 292.607 59.3136 293.348 59.1986C295.117 58.9676 296.794 58.7366 298.379 58.5466C300.515 58.3196 302.474 58.1286 304.102 57.9386H304.243C306.428 57.7476 308.056 57.5916 309.079 57.5166C309.268 57.5166 309.403 57.5166 309.544 57.4766H309.733H309.776L309.825 57.4406H309.684C299.542 57.6316 290.373 58.2796 282.367 59.1586C282.086 59.1586 281.761 59.1986 281.485 59.2736C256.726 62.4426 237.971 69.1216 228.197 73.2086C227.169 73.6656 226.287 74.0476 225.449 74.4286C218.936 77.4466 212.839 80.7306 207.484 84.6626C205.856 85.8476 204.319 87.0676 202.832 88.4036C201.993 89.1316 201.112 90.0106 200.225 90.9246C199.716 91.4576 199.202 92.0336 198.645 92.6066C197.623 93.7866 196.503 95.1226 195.432 96.5386C194.923 97.2616 194.361 98.0246 193.852 98.7886C193.62 99.1346 193.338 99.4756 193.154 99.8576C185.889 110.931 180.074 127.883 187.334 150.254C187.382 150.33 187.382 150.409 187.426 150.525C189.801 157.701 193.522 165.453 198.97 173.735C225.963 212.641 255.404 245.476 255.404 245.476L380.84 245.21Z" fill="white"/>
<path d="M462.24 245.287C401.694 239.139 278.877 186.985 278.877 186.985H278.829C277.201 186.107 275.621 185.228 274.085 184.349C273.479 184.043 272.922 183.737 272.316 183.355C262.958 177.972 254.627 172.629 247.276 167.437C238.063 160.296 231.593 153.347 227.169 146.783C219.633 135.671 217.913 125.708 218.562 117.729C218.605 117.573 218.605 117.423 218.605 117.267C218.654 116.62 218.703 116.007 218.795 115.399C218.887 114.822 218.979 114.29 219.076 113.717C219.168 113.184 219.26 112.648 219.401 112.115C219.541 111.618 219.676 111.121 219.774 110.624V110.588V110.509C219.817 110.358 219.866 110.242 219.909 110.091C219.909 110.051 219.909 110.051 219.958 110.012C220.191 109.253 220.423 108.525 220.656 107.837C220.748 107.415 220.888 106.998 221.121 106.617C221.586 105.432 222.1 104.287 222.706 103.142C222.982 102.569 223.263 102.072 223.544 101.615C224.193 100.39 224.799 99.5161 225.173 99.0591C225.265 98.9441 225.357 98.8281 225.448 98.6731C247.184 67.9011 313.13 58.5861 320.341 57.6321C311.269 58.3951 302.609 59.5401 294.608 60.9161C294.186 60.9911 293.813 61.0311 293.397 61.1071C218.936 71.9081 205.158 101.54 204.368 103.408C204.319 103.448 204.319 103.483 204.319 103.483C201.296 108.756 199.667 114.099 199.153 119.331C196.784 142.732 216.188 164.65 228.013 175.682C229.176 176.752 230.29 177.746 231.269 178.585C232.108 179.312 232.989 180.036 233.779 180.724C234.991 181.753 235.872 182.477 236.387 182.823C236.57 182.974 236.711 183.089 236.803 183.129V183.165C297.21 230.507 389.095 245.476 389.095 245.476H462.192" fill="white"/>
<path d="M462.241 245.287H440.936V134.435H462.241V180.829L497.056 134.435H517.049L479.919 188.471L517.049 245.287H497.056L462.241 198.893V245.287Z" fill="white"/>
<path d="M410.123 171.436H379.241V148.436H410.123V171.436ZM410.123 134.436H379.241H358.192H357.936V234.436H379.241V198.894V185.436H410.123H431.428V179.577V177.295V171.436V164.091V155.781V148.436V142.577V140.295V134.436H410.123Z" fill="white"/>
<path d="M268.241 180.83V148.436H287.936V211.436H309.241V198.893V180.83V148.436H328.936V226.436H350.241V198.893V180.83V134.436H350.191H328.936H309.241H287.936H268.241H246.985H246.936V187.436H268.241V180.83Z" fill="white"/>
<path d="M21.021 402.777H0V293.409H21.021L42.346 353.348L64.512 293.409H84.235V402.777H64.512V357.004L49.201 402.777H36.861L21.021 357.004V402.777Z" fill="white"/>
<path d="M120.489 402.778H99.4678V293.41H120.489V402.778Z" fill="white"/>
<path d="M156.742 402.777H135.721V293.409H156.742L191.092 354.718V293.409H210.819V402.777H191.092L156.742 339.639V402.777Z" fill="white"/>
<path d="M247.069 402.777H226.048V293.409H247.069V339.182H281.419V293.409H301.142V402.777H281.419V357.004H247.069V402.777Z" fill="white"/>
<path d="M376.089 339.184H410.439V312.145H376.089V339.184ZM376.089 402.778H355.068V293.407H430.162V357.005H376.089V402.778Z" fill="white"/>
<path d="M466.418 402.777H445.397V293.409H466.418V339.182H500.768V293.409H520.495V402.777H500.768V357.004H466.418V402.777Z" fill="white"/>
<path d="M575.682 265L565.428 286.249H580.511L590.865 265H575.682ZM556.747 339.181H591.097V312.142H556.747V339.181ZM591.093 357.003H556.747V402.776H535.727V293.408H610.821V402.776H591.093V357.003Z" fill="white"/>
<path d="M654.462 312.144H626.054V293.406H701.152V312.144H675.483V402.777H654.462V312.144Z" fill="white"/>
</svg>
