<svg width="1362" height="438" viewBox="0 0 1362 438" fill="none" xmlns="http://www.w3.org/2000/svg">
<mask id="mask0_2560_61" style="mask-type:alpha" maskUnits="userSpaceOnUse" x="0" y="0" width="1362" height="438">
<rect width="1362" height="438" fill="#D9D9D9"/>
</mask>
<g mask="url(#mask0_2560_61)">
<mask id="mask1_2560_61" style="mask-type:luminance" maskUnits="userSpaceOnUse" x="-319" y="-781" width="2000" height="2000">
<path d="M-319 -781H1681V1219H-319V-781Z" fill="white"/>
</mask>
<g mask="url(#mask1_2560_61)">
<path d="M1361.55 219C1361.55 339.896 1056.86 437.901 680.999 437.901C305.143 437.901 0.451172 339.896 0.451172 219C0.451172 98.1041 305.143 0.0987403 680.999 0.0987403C1056.86 0.0987403 1361.55 98.1041 1361.55 219Z" fill="white"/>
<path d="M239.562 298.941C239.562 298.941 239.562 298.98 239.607 298.98V298.941H239.562ZM239.562 298.941C239.562 298.941 239.562 298.98 239.607 298.98V298.941H239.562Z" fill="#1A3865"/>
<path d="M239.606 298.941V298.98C239.562 298.98 239.562 298.941 239.562 298.941H239.606Z" fill="#1A3865"/>
<path d="M239.606 298.941V298.98C239.562 298.98 239.562 298.941 239.562 298.941H239.606Z" fill="#1A3865"/>
<path d="M240.552 306.386C240.048 305.922 239.373 305.29 238.614 304.538C239.246 305.125 239.876 305.754 240.552 306.386Z" fill="#1A3865"/>
<path d="M239.079 306.382C239.416 306.675 239.755 307.014 240.091 307.306C239.92 307.14 239.543 306.846 239.079 306.382Z" fill="#1A3865"/>
<path d="M239.606 298.941V298.98C239.562 298.98 239.562 298.941 239.562 298.941H239.606Z" fill="#1A3865"/>
<path d="M240.552 306.386C240.048 305.922 239.373 305.29 238.614 304.538C239.246 305.125 239.876 305.754 240.552 306.386Z" fill="#1A3865"/>
<path d="M239.079 306.382C239.416 306.675 239.755 307.014 240.091 307.306C239.92 307.14 239.543 306.846 239.079 306.382Z" fill="#1A3865"/>
<path d="M238.617 304.536C239.376 305.294 240.045 305.925 240.555 306.384C239.879 305.758 239.249 305.126 238.617 304.536Z" fill="#1A3865"/>
<path d="M290.819 105.994C290.478 106.044 290.114 106.118 289.746 106.188Z" fill="#1A3865"/>
<path d="M195.843 119.633C195.779 119.633 195.716 119.644 195.652 119.649C195.764 119.638 195.843 119.633 195.843 119.633Z" fill="#1A3865"/>
<path d="M195.633 119.633C195.633 119.633 195.55 119.682 195.422 119.682L195.466 119.633H195.633Z" fill="#1A3865"/>
<path d="M278.331 89.7175L283.549 101.708L296.566 102.967L286.775 111.639L289.598 124.403L278.331 117.775L267.065 124.403L269.887 111.639L260.097 102.967L273.114 101.708L278.331 89.7175Z" fill="#1A3865"/>
<path d="M337.297 49.482L345.137 67.49L364.683 69.3793L349.983 82.402L354.226 101.577L337.297 91.6193L320.367 101.577L324.61 82.402L309.91 69.3793L329.457 67.49L337.297 49.482Z" fill="#1A3865"/>
<path d="M390.889 89.7175L396.106 101.708L409.124 102.967L399.333 111.639L402.161 124.403L390.889 117.775L379.622 124.403L382.445 111.639L372.654 102.967L385.672 101.708L390.889 89.7175Z" fill="#1A3865"/>
<path d="M335.646 348.977C304.785 342.912 220.889 323.421 161.545 280.336C160.634 279.728 159.722 279.072 158.817 278.421C158.645 278.33 158.474 278.232 158.301 278.048C158.249 277.998 158.249 277.998 158.189 277.954C158.189 277.954 158.137 277.906 158.137 277.864C151.991 273.245 146.138 268.352 140.627 263.173C136.934 259.678 133.353 256.036 129.997 252.258C129.654 251.889 125.563 246.572 125.505 246.48C100.722 205.442 103.622 177.697 135.394 152.372C135.507 152.329 135.566 152.232 135.679 152.189C136.479 151.533 137.271 150.932 138.07 150.324C138.235 150.184 138.407 150.042 138.639 149.95C139.947 149.201 141.309 148.41 142.729 147.712C143.013 147.572 143.297 147.436 143.581 147.294C157.337 140.345 171.549 135.12 185.021 131.201C186.097 130.876 187.181 130.6 188.257 130.318C210.542 124.49 232.769 121.461 246.749 119.917C239.474 120.573 232.597 121.364 226.003 122.253C226.967 122.062 227.879 121.926 228.785 121.786C230.946 121.505 232.994 121.222 234.93 120.99C237.538 120.713 239.931 120.48 241.919 120.248H242.091C244.761 120.014 246.749 119.824 247.998 119.732C248.229 119.732 248.394 119.732 248.566 119.684H248.797H248.85L248.91 119.64H248.737C236.35 119.873 225.151 120.664 215.373 121.737C215.03 121.737 214.633 121.786 214.295 121.878C184.055 125.749 161.149 133.906 149.21 138.898C147.955 139.456 146.878 139.922 145.854 140.388C137.899 144.074 130.453 148.085 123.911 152.888C121.923 154.336 120.046 155.825 118.23 157.457C117.206 158.346 116.13 159.42 115.046 160.536C114.425 161.188 113.797 161.89 113.117 162.59C111.867 164.032 110.501 165.664 109.191 167.393C108.57 168.276 107.883 169.208 107.262 170.141C106.979 170.564 106.634 170.98 106.41 171.446C97.5367 184.97 90.434 205.676 99.3007 233C99.3593 233.092 99.3593 233.189 99.414 233.33C102.314 242.096 106.859 251.564 113.513 261.678C146.482 309.198 182.441 349.302 182.441 349.302L335.646 348.977Z" fill="#1A3865"/>
<path d="M435.067 349.071C361.117 341.562 211.111 277.862 211.111 277.862H211.052C209.063 276.79 207.133 275.716 205.257 274.643C204.517 274.268 203.837 273.895 203.097 273.428C191.667 266.854 181.492 260.328 172.513 253.987C161.261 245.264 153.359 236.778 147.955 228.76C138.751 215.188 136.651 203.019 137.443 193.274C137.495 193.083 137.495 192.9 137.495 192.71C137.555 191.919 137.615 191.171 137.727 190.428C137.84 189.723 137.952 189.074 138.071 188.374C138.183 187.723 138.295 187.068 138.468 186.418C138.639 185.81 138.803 185.203 138.923 184.596V184.552V184.455C138.976 184.271 139.036 184.13 139.088 183.946C139.088 183.896 139.088 183.896 139.148 183.848C139.432 182.922 139.716 182.032 140 181.192C140.112 180.676 140.284 180.167 140.568 179.702C141.136 178.255 141.764 176.856 142.504 175.458C142.841 174.758 143.184 174.151 143.528 173.592C144.32 172.096 145.06 171.028 145.517 170.471C145.629 170.33 145.743 170.188 145.853 169.999C172.401 132.415 252.947 121.038 261.753 119.872C250.673 120.804 240.096 122.203 230.324 123.883C229.808 123.975 229.353 124.024 228.845 124.116C137.9 137.308 121.071 173.502 120.107 175.783C120.047 175.831 120.047 175.874 120.047 175.874C116.355 182.315 114.365 188.84 113.737 195.231C110.844 223.812 134.543 250.583 148.985 264.056C150.407 265.363 151.767 266.578 152.963 267.603C153.988 268.491 155.064 269.375 156.028 270.215C157.509 271.472 158.585 272.356 159.213 272.779C159.437 272.963 159.609 273.103 159.721 273.152V273.196C233.501 331.019 345.729 349.302 345.729 349.302H435.008" fill="#1A3865"/>
<path d="M435.066 349.071H409.045V213.679H435.066V270.343L477.589 213.679H502.008L456.658 279.677L502.008 349.071H477.589L435.066 292.406V349.071Z" fill="#1A3865"/>
<path d="M371.41 258.871H333.691V230.779H371.41V258.871ZM371.41 213.679H333.691H307.982H307.67V335.817H333.691V292.407V275.969H371.41H397.431V268.813V266.027V258.871V249.899V239.749V230.779V223.623V220.835V213.679H371.41Z" fill="#1A3865"/>
<path d="M198.118 270.344V230.779H222.173V307.726H248.195V292.406V270.344V230.779H272.25V326.047H298.271V292.406V270.344V213.679H298.21H272.25H248.195H222.173H198.118H172.157H172.097V278.412H198.118V270.344Z" fill="#1A3865"/>
</g>
<path d="M635.093 194.66C629.717 195.8 625.074 196.493 621.165 196.737C617.337 197.063 613.956 197.063 611.024 196.737C608.092 196.493 605.2 196.045 602.35 195.393C599.499 194.823 596.404 194.253 593.064 193.683C589.725 193.113 585.775 192.665 581.213 192.339C576.652 192.013 571.114 192.054 564.597 192.461V177.8C567.122 177.963 569.932 178.004 573.028 177.922C576.123 177.841 579.381 177.678 582.802 177.433C586.223 177.189 589.603 176.823 592.942 176.334C596.282 175.845 599.377 175.234 602.228 174.501C605.078 173.687 607.481 172.75 609.436 171.691V170.836C603.327 172.628 597.788 173.402 592.82 173.157C587.852 172.913 583.494 171.854 579.747 169.981C576.001 168.107 572.865 165.501 570.34 162.162C567.815 158.822 565.901 154.953 564.597 150.555C563.376 146.157 562.765 141.31 562.765 136.016C562.765 129.826 563.539 124.165 565.086 119.034C566.715 113.902 569.077 109.504 572.172 105.839C575.267 102.092 579.096 99.2005 583.657 97.1643C588.3 95.128 593.635 94.1099 599.662 94.1099C607.237 94.1099 613.753 95.7796 619.21 99.1191C624.667 102.377 628.78 107.142 631.55 113.414C634.4 119.604 635.826 127.097 635.826 135.894C635.826 143.387 634.767 149.74 632.649 154.953C630.613 160.085 627.721 164.32 623.975 167.659C620.309 170.999 615.911 173.605 610.78 175.479C605.73 177.352 600.191 178.737 594.164 179.633L594.286 180.366C599.01 181.099 603.164 181.669 606.748 182.076C610.413 182.565 613.753 182.809 616.766 182.809C619.861 182.809 622.875 182.565 625.807 182.076C628.74 181.587 631.835 180.773 635.093 179.633V194.66ZM599.417 164.483C602.757 164.483 605.771 163.628 608.458 161.917C611.146 160.125 613.305 157.234 614.934 153.243C616.644 149.17 617.499 143.754 617.499 136.993C617.499 130.477 616.766 125.142 615.3 120.988C613.916 116.834 611.839 113.739 609.069 111.703C606.381 109.667 603.083 108.649 599.173 108.649C595.997 108.649 593.024 109.545 590.254 111.337C587.566 113.129 585.367 116.061 583.657 120.133C582.028 124.206 581.213 129.663 581.213 136.505C581.213 143.347 581.987 148.844 583.535 152.998C585.164 157.071 587.363 160.003 590.132 161.795C592.983 163.587 596.078 164.483 599.417 164.483ZM677.634 178.167C673.155 178.167 669.123 177.637 665.539 176.578C661.955 175.601 658.819 174.175 656.132 172.302C653.525 170.347 651.326 168.026 649.534 165.338C647.824 162.569 646.521 159.474 645.625 156.053C644.81 152.632 644.403 148.926 644.403 144.935V95.8203H661.996V143.957C661.996 148.193 662.607 151.695 663.829 154.464C665.132 157.152 666.924 159.148 669.204 160.451C671.566 161.754 674.376 162.406 677.634 162.406C680.974 162.406 683.784 161.754 686.065 160.451C688.427 159.148 690.219 157.152 691.44 154.464C692.662 151.695 693.273 148.193 693.273 143.957V95.8203H710.988V144.935C710.988 155.523 708.138 163.709 702.436 169.492C696.735 175.275 688.467 178.167 677.634 178.167ZM712.191 176.456L739.68 95.8203H762.649L789.895 176.456H770.835L751.287 110.237H750.676L731.128 176.456H712.191ZM726.974 161.306V148.6H777.31V161.306H726.974ZM751.776 198.936C748.355 198.936 745.749 198.203 743.957 196.737C742.165 195.271 741.269 193.194 741.269 190.506C741.269 187.737 742.165 185.619 743.957 184.153C745.749 182.687 748.355 181.954 751.776 181.954C755.197 181.954 757.803 182.687 759.595 184.153C761.468 185.619 762.405 187.737 762.405 190.506C762.405 193.194 761.468 195.271 759.595 196.737C757.803 198.203 755.197 198.936 751.776 198.936ZM801.83 176.456V95.8203H819.423V176.456H801.83ZM781.06 110.97V95.8203H840.193V110.97H781.06ZM889.524 176.456V95.8203H907.117V176.456H889.524ZM868.754 110.97V95.8203H927.887V110.97H868.754ZM934.816 176.456V95.8203H966.949C970.614 95.8203 974.035 96.1461 977.211 96.7977C980.469 97.3679 983.401 98.3046 986.008 99.6078C988.614 100.83 990.854 102.377 992.728 104.25C994.682 106.124 996.148 108.364 997.126 110.97C998.185 113.495 998.714 116.387 998.714 119.645C998.714 122.088 998.307 124.45 997.492 126.731C996.678 129.011 995.375 131.088 993.583 132.962C991.791 134.754 989.429 136.26 986.497 137.482C983.564 138.622 980.062 139.437 975.99 139.926V140.903C981.039 141.147 984.949 142.166 987.718 143.957C990.569 145.668 992.728 147.908 994.194 150.677C995.66 153.365 996.8 156.419 997.615 159.84L1001.89 176.456H982.465L979.41 161.062C978.84 158.211 977.985 155.849 976.845 153.976C975.786 152.021 974.238 150.555 972.202 149.577C970.166 148.6 967.437 148.111 964.016 148.111H952.41V176.456H934.816ZM952.41 134.306H964.994C970.044 134.306 973.872 133.369 976.478 131.496C979.166 129.541 980.51 126.609 980.51 122.699C980.51 118.463 979.248 115.328 976.723 113.291C974.279 111.174 970.532 110.115 965.482 110.115H952.41V134.306ZM1004.98 176.456L1032.47 95.8203H1055.44L1082.69 176.456H1063.63L1044.08 110.237H1043.47L1023.92 176.456H1004.98ZM1019.77 161.306V148.6H1070.1V161.306H1019.77ZM1025.26 93.0103V80.3041L1043.83 73.2179L1062.53 80.3041V93.0103L1043.83 85.9241L1025.26 93.0103ZM1037.11 70.0413L1025.75 54.8916H1045.54L1052.88 70.0413H1037.11ZM1088.61 176.456V95.8203H1112.43L1143.95 153.609H1144.2V95.8203H1161.67V176.456H1139.07L1106.32 117.079H1106.08V176.456H1088.61Z" fill="#1A3865"/>
<path d="M556.169 320.667C553.321 320.667 550.849 320.248 548.755 319.411C546.66 318.531 544.922 317.316 543.539 315.766C542.157 314.216 541.131 312.415 540.46 310.362C539.79 308.31 539.455 306.068 539.455 303.639C539.455 301.167 539.79 298.884 540.46 296.79C541.173 294.653 542.199 292.768 543.539 291.134C544.922 289.459 546.639 288.181 548.692 287.301C550.745 286.38 553.174 285.919 555.981 285.919C559.081 285.919 561.657 286.484 563.71 287.615C565.762 288.705 567.291 290.192 568.297 292.077C569.344 293.92 569.868 295.952 569.868 298.172L561.762 299.743C561.762 298.235 561.511 296.999 561.008 296.036C560.505 295.03 559.793 294.276 558.871 293.773C557.992 293.271 556.944 293.019 555.73 293.019C554.599 293.019 553.593 293.229 552.713 293.648C551.876 294.067 551.143 294.716 550.514 295.596C549.928 296.434 549.467 297.502 549.132 298.8C548.797 300.057 548.629 301.544 548.629 303.262C548.629 305.524 548.922 307.451 549.509 309.043C550.095 310.634 550.954 311.828 552.085 312.624C553.258 313.42 554.661 313.818 556.295 313.818C557.971 313.818 559.269 313.462 560.191 312.75C561.154 312.038 561.825 311.116 562.202 309.985C562.579 308.854 562.746 307.702 562.704 306.529L570.936 307.472C570.978 309.231 570.706 310.907 570.119 312.499C569.575 314.09 568.695 315.515 567.48 316.771C566.307 317.986 564.778 318.95 562.893 319.662C561.008 320.332 558.767 320.667 556.169 320.667ZM575.138 319.788V301.439V275.614H584.187V284.788C584.187 285.626 584.145 286.652 584.061 287.867C583.977 289.082 583.851 290.359 583.684 291.7C583.516 293.04 583.349 294.381 583.181 295.721C583.014 297.02 582.867 298.193 582.741 299.24H583.621C584.082 296.266 584.773 293.794 585.695 291.826C586.616 289.815 587.852 288.328 589.402 287.364C590.952 286.401 592.837 285.919 595.057 285.919C598.744 285.919 601.487 287.218 603.289 289.815C605.09 292.412 605.991 296.371 605.991 301.691V319.788H596.942V302.508C596.942 299.492 596.502 297.271 595.623 295.847C594.785 294.423 593.465 293.711 591.664 293.711C590.114 293.711 588.795 294.234 587.705 295.282C586.616 296.329 585.757 297.858 585.129 299.869C584.543 301.879 584.228 304.33 584.187 307.22V319.788H575.138ZM626.977 320.667C623.751 320.667 620.903 320.018 618.431 318.719C615.96 317.421 614.012 315.494 612.587 312.938C611.205 310.341 610.514 307.116 610.514 303.262C610.514 299.324 611.226 296.077 612.65 293.522C614.116 290.967 616.085 289.061 618.557 287.804C621.07 286.547 623.898 285.919 627.04 285.919C630.265 285.919 633.114 286.568 635.586 287.867C638.057 289.165 639.984 291.092 641.366 293.648C642.749 296.203 643.44 299.429 643.44 303.325C643.44 307.304 642.707 310.572 641.241 313.127C639.816 315.682 637.848 317.588 635.334 318.845C632.863 320.06 630.077 320.667 626.977 320.667ZM627.228 313.881C628.736 313.881 630.014 313.504 631.061 312.75C632.109 311.954 632.904 310.802 633.449 309.294C634.036 307.786 634.329 305.964 634.329 303.827C634.329 301.523 634.036 299.575 633.449 297.983C632.863 296.392 632.004 295.177 630.873 294.339C629.742 293.459 628.38 293.019 626.788 293.019C625.28 293.019 623.982 293.417 622.893 294.213C621.845 294.967 621.049 296.119 620.505 297.669C619.96 299.177 619.688 301.021 619.688 303.199C619.688 306.592 620.337 309.231 621.636 311.116C622.976 312.959 624.841 313.881 627.228 313.881ZM662.029 319.788V301V286.799H669.632L669.506 299.115H670.26C670.637 296.14 671.287 293.69 672.208 291.763C673.13 289.794 674.366 288.328 675.916 287.364C677.507 286.401 679.434 285.919 681.696 285.919C685.383 285.919 688.169 287.197 690.054 289.752C691.939 292.265 692.881 296.161 692.881 301.439V319.788H683.833V302.445C683.833 299.429 683.393 297.229 682.513 295.847C681.634 294.423 680.272 293.711 678.429 293.711C676.879 293.711 675.559 294.213 674.47 295.219C673.381 296.224 672.543 297.732 671.957 299.743C671.37 301.712 671.077 304.183 671.077 307.158V319.788H662.029ZM711.794 330.281C708.108 330.281 705.154 329.988 702.934 329.402C700.714 328.857 699.101 328.061 698.096 327.014C697.132 325.966 696.65 324.71 696.65 323.244C696.65 321.4 697.384 319.892 698.85 318.719C700.358 317.546 702.578 316.771 705.51 316.394V315.703C703.248 315.703 701.51 315.41 700.295 314.824C699.122 314.195 698.536 313.253 698.536 311.996C698.536 310.823 699.101 309.776 700.232 308.854C701.363 307.933 703.248 307.325 705.887 307.032V306.215C703.458 305.838 701.531 304.895 700.106 303.387C698.724 301.837 698.033 299.869 698.033 297.481C698.033 295.344 698.598 293.48 699.729 291.888C700.902 290.255 702.578 288.977 704.756 288.055C706.977 287.092 709.637 286.61 712.736 286.61H729.325V293.648L718.455 292.265V293.145C721.513 293.564 723.628 294.318 724.801 295.407C726.016 296.496 726.623 297.858 726.623 299.492C726.623 301.125 726.121 302.591 725.115 303.89C724.11 305.147 722.602 306.152 720.591 306.906C718.58 307.618 716.088 307.974 713.114 307.974C712.401 307.974 711.647 307.953 710.851 307.912C710.097 307.828 709.218 307.702 708.212 307.535C707.333 307.995 706.662 308.435 706.202 308.854C705.741 309.231 705.51 309.608 705.51 309.985C705.51 310.237 705.636 310.446 705.887 310.614C706.181 310.739 706.537 310.844 706.956 310.928C707.416 310.97 707.919 310.991 708.464 310.991H718.203C719.041 310.991 720.109 311.053 721.408 311.179C722.748 311.263 724.068 311.577 725.367 312.122C726.707 312.624 727.817 313.483 728.697 314.698C729.618 315.871 730.079 317.525 730.079 319.662C730.079 322.092 729.409 324.081 728.069 325.631C726.77 327.223 724.759 328.396 722.036 329.15C719.355 329.904 715.941 330.281 711.794 330.281ZM712.108 322.615C714.873 322.615 716.967 322.49 718.392 322.238C719.858 321.987 720.863 321.61 721.408 321.107C721.952 320.646 722.225 320.06 722.225 319.348C722.225 318.636 722.036 318.07 721.659 317.651C721.324 317.232 720.863 316.939 720.277 316.771C719.732 316.562 719.167 316.457 718.58 316.457C717.994 316.415 717.491 316.394 717.072 316.394H708.903C707.27 316.771 706.118 317.253 705.448 317.84C704.819 318.426 704.505 319.117 704.505 319.913C704.505 320.667 704.798 321.233 705.385 321.61C705.971 322.029 706.83 322.301 707.961 322.427C709.134 322.552 710.516 322.615 712.108 322.615ZM712.674 303.01C714.433 303.01 715.774 302.55 716.695 301.628C717.659 300.664 718.14 299.387 718.14 297.795C718.14 296.203 717.638 294.904 716.632 293.899C715.669 292.852 714.328 292.328 712.611 292.328C710.893 292.328 709.532 292.852 708.526 293.899C707.563 294.904 707.081 296.203 707.081 297.795C707.081 298.842 707.291 299.764 707.71 300.56C708.17 301.314 708.82 301.921 709.658 302.382C710.495 302.801 711.501 303.01 712.674 303.01ZM748.354 320.667C745.128 320.667 742.28 320.018 739.808 318.719C737.337 317.421 735.389 315.494 733.964 312.938C732.582 310.341 731.891 307.116 731.891 303.262C731.891 299.324 732.603 296.077 734.027 293.522C735.493 290.967 737.462 289.061 739.934 287.804C742.447 286.547 745.275 285.919 748.417 285.919C751.642 285.919 754.491 286.568 756.962 287.867C759.434 289.165 761.361 291.092 762.743 293.648C764.126 296.203 764.817 299.429 764.817 303.325C764.817 307.304 764.084 310.572 762.618 313.127C761.193 315.682 759.224 317.588 756.711 318.845C754.239 320.06 751.454 320.667 748.354 320.667ZM748.605 313.881C750.113 313.881 751.391 313.504 752.438 312.75C753.485 311.954 754.281 310.802 754.826 309.294C755.412 307.786 755.706 305.964 755.706 303.827C755.706 301.523 755.412 299.575 754.826 297.983C754.239 296.392 753.381 295.177 752.25 294.339C751.119 293.459 749.757 293.019 748.165 293.019C746.657 293.019 745.359 293.417 744.269 294.213C743.222 294.967 742.426 296.119 741.882 297.669C741.337 299.177 741.065 301.021 741.065 303.199C741.065 306.592 741.714 309.231 743.013 311.116C744.353 312.959 746.217 313.881 748.605 313.881ZM738.489 284.662V278.002L748.417 273.477L758.282 278.002V284.662L748.417 280.138L738.489 284.662ZM769.844 319.788V286.799H778.893V319.788H769.844ZM774.306 283.091C772.546 283.091 771.206 282.735 770.284 282.023C769.362 281.269 768.902 280.18 768.902 278.756C768.902 277.331 769.362 276.242 770.284 275.488C771.248 274.734 772.588 274.357 774.306 274.357C776.107 274.357 777.468 274.734 778.39 275.488C779.353 276.242 779.835 277.331 779.835 278.756C779.835 280.138 779.353 281.206 778.39 281.96C777.468 282.714 776.107 283.091 774.306 283.091ZM798.746 319.788V301V286.799H806.35L806.224 299.115H806.978C807.355 296.14 808.004 293.69 808.926 291.763C809.847 289.794 811.083 288.328 812.633 287.364C814.225 286.401 816.152 285.919 818.414 285.919C822.1 285.919 824.886 287.197 826.771 289.752C828.656 292.265 829.599 296.161 829.599 301.439V319.788H820.551V302.445C820.551 299.429 820.111 297.229 819.231 295.847C818.351 294.423 816.99 293.711 815.147 293.711C813.597 293.711 812.277 294.213 811.188 295.219C810.099 296.224 809.261 297.732 808.674 299.743C808.088 301.712 807.795 304.183 807.795 307.158V319.788H798.746ZM835.442 319.788V301.439V275.614H844.49V284.788C844.49 285.626 844.448 286.652 844.364 287.867C844.281 289.082 844.155 290.359 843.987 291.7C843.82 293.04 843.652 294.381 843.485 295.721C843.317 297.02 843.171 298.193 843.045 299.24H843.925C844.385 296.266 845.077 293.794 845.998 291.826C846.92 289.815 848.156 288.328 849.706 287.364C851.255 286.401 853.141 285.919 855.361 285.919C859.047 285.919 861.791 287.218 863.592 289.815C865.394 292.412 866.294 296.371 866.294 301.691V319.788H857.246V302.508C857.246 299.492 856.806 297.271 855.926 295.847C855.088 294.423 853.769 293.711 851.968 293.711C850.418 293.711 849.098 294.234 848.009 295.282C846.92 296.329 846.061 297.858 845.433 299.869C844.846 301.879 844.532 304.33 844.49 307.22V319.788H835.442ZM880.369 320.667C878.609 320.667 876.996 320.353 875.53 319.725C874.064 319.055 872.891 318.049 872.011 316.709C871.132 315.368 870.692 313.63 870.692 311.493C870.692 309.566 871.069 307.995 871.823 306.781C872.577 305.524 873.603 304.518 874.902 303.764C876.242 302.968 877.792 302.361 879.552 301.942C881.311 301.481 883.175 301.083 885.144 300.748C887.029 300.413 888.474 300.141 889.48 299.931C890.485 299.68 891.176 299.366 891.553 298.989C891.972 298.612 892.182 298.067 892.182 297.355C892.182 296.056 891.7 295.009 890.737 294.213C889.815 293.417 888.495 293.019 886.778 293.019C885.731 293.019 884.704 293.229 883.699 293.648C882.694 294.025 881.835 294.653 881.123 295.533C880.452 296.413 880.054 297.606 879.929 299.115L871.886 297.732C872.053 295.554 872.577 293.711 873.457 292.203C874.378 290.694 875.551 289.48 876.975 288.558C878.4 287.636 879.971 286.966 881.688 286.547C883.448 286.128 885.249 285.919 887.092 285.919C890.234 285.919 892.831 286.484 894.884 287.615C896.936 288.705 898.465 290.359 899.471 292.58C900.518 294.758 901.042 297.481 901.042 300.748V306.592C901.042 308.016 901.042 309.482 901.042 310.991C901.084 312.457 901.125 313.923 901.167 315.389C901.251 316.855 901.314 318.321 901.356 319.788H893.376C893.334 318.405 893.292 316.96 893.25 315.452C893.208 313.944 893.187 312.373 893.187 310.739H892.496C892.119 312.54 891.386 314.195 890.297 315.703C889.208 317.211 887.825 318.426 886.15 319.348C884.474 320.227 882.547 320.667 880.369 320.667ZM884.013 314.007C884.851 314.007 885.71 313.86 886.589 313.567C887.469 313.232 888.307 312.75 889.103 312.122C889.899 311.451 890.569 310.593 891.114 309.545C891.7 308.498 892.077 307.262 892.245 305.838V302.822H893.816C893.271 303.366 892.538 303.806 891.616 304.141C890.737 304.477 889.752 304.728 888.663 304.895C887.616 305.063 886.547 305.252 885.458 305.461C884.411 305.67 883.448 305.943 882.568 306.278C881.688 306.613 880.976 307.074 880.431 307.66C879.887 308.247 879.615 309.064 879.615 310.111C879.615 311.326 880.033 312.289 880.871 313.001C881.709 313.672 882.756 314.007 884.013 314.007ZM883.762 283.217L877.541 274.294H887.218L891.365 283.217H883.762ZM932.996 320.542C929.309 320.542 926.566 319.578 924.764 317.651C923.005 315.724 922.125 312.729 922.125 308.666V293.899H917.978L918.041 287.553H919.675C921.56 287.385 922.921 286.861 923.759 285.982C924.597 285.102 925.12 283.699 925.33 281.772L925.644 279.384H930.922V286.799H939.028V294.15H930.922V308.037C930.922 309.587 931.299 310.718 932.053 311.43C932.807 312.101 933.834 312.436 935.132 312.436C935.844 312.436 936.536 312.352 937.206 312.184C937.918 312.017 938.546 311.745 939.091 311.368V319.599C937.834 319.976 936.703 320.227 935.698 320.353C934.692 320.479 933.792 320.542 932.996 320.542ZM943.994 319.788V301.439V275.614H953.042V284.788C953.042 285.626 953 286.652 952.916 287.867C952.833 289.082 952.707 290.359 952.539 291.7C952.372 293.04 952.204 294.381 952.037 295.721C951.869 297.02 951.722 298.193 951.597 299.24H952.476C952.937 296.266 953.628 293.794 954.55 291.826C955.472 289.815 956.707 288.328 958.257 287.364C959.807 286.401 961.692 285.919 963.913 285.919C967.599 285.919 970.343 287.218 972.144 289.815C973.945 292.412 974.846 296.371 974.846 301.691V319.788H965.798V302.508C965.798 299.492 965.358 297.271 964.478 295.847C963.64 294.423 962.321 293.711 960.519 293.711C958.97 293.711 957.65 294.234 956.561 295.282C955.472 296.329 954.613 297.858 953.985 299.869C953.398 301.879 953.084 304.33 953.042 307.22V319.788H943.994ZM980.689 319.788V286.799H989.737V319.788H980.689ZM985.15 283.091C983.391 283.091 982.05 282.735 981.129 282.023C980.207 281.269 979.746 280.18 979.746 278.756C979.746 277.331 980.207 276.242 981.129 275.488C982.092 274.734 983.433 274.357 985.15 274.357C986.952 274.357 988.313 274.734 989.235 275.488C990.198 276.242 990.68 277.331 990.68 278.756C990.68 280.138 990.198 281.206 989.235 281.96C988.313 282.714 986.952 283.091 985.15 283.091ZM985.339 332.229C983.579 332.229 982.239 331.852 981.317 331.098C980.396 330.386 979.935 329.318 979.935 327.893C979.935 326.469 980.396 325.38 981.317 324.626C982.281 323.872 983.621 323.495 985.339 323.495C987.14 323.495 988.502 323.872 989.423 324.626C990.387 325.38 990.868 326.469 990.868 327.893C990.868 329.276 990.387 330.344 989.423 331.098C988.502 331.852 987.14 332.229 985.339 332.229ZM996.03 319.788V301V286.799H1003.63L1003.51 299.115H1004.26C1004.64 296.14 1005.29 293.69 1006.21 291.763C1007.13 289.794 1008.37 288.328 1009.92 287.364C1011.51 286.401 1013.44 285.919 1015.7 285.919C1019.38 285.919 1022.17 287.197 1024.05 289.752C1025.94 292.265 1026.88 296.161 1026.88 301.439V319.788H1017.83V302.445C1017.83 299.429 1017.39 297.229 1016.51 295.847C1015.63 294.423 1014.27 293.711 1012.43 293.711C1010.88 293.711 1009.56 294.213 1008.47 295.219C1007.38 296.224 1006.54 297.732 1005.96 299.743C1005.37 301.712 1005.08 304.183 1005.08 307.158V319.788H996.03ZM1032.73 319.788V301.439V275.614H1041.77V284.788C1041.77 285.626 1041.73 286.652 1041.65 287.867C1041.56 289.082 1041.44 290.359 1041.27 291.7C1041.1 293.04 1040.94 294.381 1040.77 295.721C1040.6 297.02 1040.45 298.193 1040.33 299.24H1041.21C1041.67 296.266 1042.36 293.794 1043.28 291.826C1044.2 289.815 1045.44 288.328 1046.99 287.364C1048.54 286.401 1050.42 285.919 1052.64 285.919C1056.33 285.919 1059.07 287.218 1060.88 289.815C1062.68 292.412 1063.58 296.371 1063.58 301.691V319.788H1054.53V302.508C1054.53 299.492 1054.09 297.271 1053.21 295.847C1052.37 294.423 1051.05 293.711 1049.25 293.711C1047.7 293.711 1046.38 294.234 1045.29 295.282C1044.2 296.329 1043.34 297.858 1042.72 299.869C1042.13 301.879 1041.82 304.33 1041.77 307.22V319.788H1032.73ZM1090.96 319.788L1080.28 286.799H1090.08L1096.81 312.373H1097.37L1104.28 286.799H1113.58L1102.84 319.788H1090.96ZM1127.9 320.667C1124.18 320.667 1121.39 319.369 1119.55 316.771C1117.75 314.174 1116.85 310.195 1116.85 304.833V286.799H1125.89V304.33C1125.89 307.346 1126.31 309.524 1127.15 310.865C1128.03 312.205 1129.33 312.876 1131.05 312.876C1132.18 312.876 1133.16 312.603 1134 312.059C1134.88 311.514 1135.63 310.697 1136.26 309.608C1136.89 308.519 1137.37 307.178 1137.71 305.587C1138.04 303.995 1138.21 302.152 1138.21 300.057V286.799H1147.26V305.21L1147.32 319.788H1139.65L1139.78 307.786H1139.03C1138.65 310.802 1138 313.253 1137.08 315.138C1136.16 317.023 1134.94 318.426 1133.43 319.348C1131.93 320.227 1130.08 320.667 1127.9 320.667ZM1147.7 288.998L1141.79 288.432L1141.92 286.799C1143.22 286.799 1144.22 286.61 1144.93 286.233C1145.65 285.856 1146.13 285.353 1146.38 284.725C1146.67 284.097 1146.82 283.385 1146.82 282.589C1146.86 281.793 1146.82 280.955 1146.69 280.075H1153.79C1154.3 282.505 1154.3 284.474 1153.79 285.982C1153.33 287.448 1152.56 288.432 1151.47 288.935C1150.38 289.438 1149.12 289.459 1147.7 288.998ZM1180.54 288.872H1176.52L1174.89 286.736C1176.82 286.736 1178.2 286.464 1179.04 285.919C1179.92 285.332 1180.44 284.557 1180.61 283.594C1180.77 282.63 1180.8 281.583 1180.67 280.452H1187.2C1187.62 282.463 1187.67 284.201 1187.33 285.668C1187 287.134 1186.26 288.181 1185.13 288.809C1184.04 289.396 1182.51 289.417 1180.54 288.872ZM1169.74 320.667C1166.51 320.667 1163.66 320.018 1161.19 318.719C1158.72 317.421 1156.77 315.494 1155.35 312.938C1153.96 310.341 1153.27 307.116 1153.27 303.262C1153.27 299.324 1153.99 296.077 1155.41 293.522C1156.88 290.967 1158.84 289.061 1161.32 287.804C1163.83 286.547 1166.66 285.919 1169.8 285.919C1173.02 285.919 1175.87 286.568 1178.34 287.867C1180.82 289.165 1182.74 291.092 1184.13 293.648C1185.51 296.203 1186.2 299.429 1186.2 303.325C1186.2 307.304 1185.47 310.572 1184 313.127C1182.58 315.682 1180.61 317.588 1178.09 318.845C1175.62 320.06 1172.84 320.667 1169.74 320.667ZM1169.99 313.881C1171.5 313.881 1172.77 313.504 1173.82 312.75C1174.87 311.954 1175.66 310.802 1176.21 309.294C1176.79 307.786 1177.09 305.964 1177.09 303.827C1177.09 301.523 1176.79 299.575 1176.21 297.983C1175.62 296.392 1174.76 295.177 1173.63 294.339C1172.5 293.459 1171.14 293.019 1169.55 293.019C1168.04 293.019 1166.74 293.417 1165.65 294.213C1164.6 294.967 1163.81 296.119 1163.26 297.669C1162.72 299.177 1162.45 301.021 1162.45 303.199C1162.45 306.592 1163.1 309.231 1164.4 311.116C1165.74 312.959 1167.6 313.881 1169.99 313.881ZM1170.18 332.229C1168.42 332.229 1167.08 331.852 1166.15 331.098C1165.23 330.386 1164.77 329.318 1164.77 327.893C1164.77 326.469 1165.23 325.38 1166.15 324.626C1167.12 323.872 1168.46 323.495 1170.18 323.495C1171.98 323.495 1173.34 323.872 1174.26 324.626C1175.22 325.38 1175.71 326.469 1175.71 327.893C1175.71 329.276 1175.22 330.344 1174.26 331.098C1173.34 331.852 1171.98 332.229 1170.18 332.229ZM1192.39 319.788V301V286.799H1200L1199.87 299.115H1200.62C1201 296.14 1201.65 293.69 1202.57 291.763C1203.49 289.794 1204.73 288.328 1206.28 287.364C1207.87 286.401 1209.8 285.919 1212.06 285.919C1215.75 285.919 1218.53 287.197 1220.42 289.752C1222.3 292.265 1223.25 296.161 1223.25 301.439V319.788H1214.2V302.445C1214.2 299.429 1213.76 297.229 1212.88 295.847C1212 294.423 1210.64 293.711 1208.79 293.711C1207.24 293.711 1205.92 294.213 1204.83 295.219C1203.75 296.224 1202.91 297.732 1202.32 299.743C1201.73 301.712 1201.44 304.183 1201.44 307.158V319.788H1192.39ZM1242.16 330.281C1238.47 330.281 1235.52 329.988 1233.3 329.402C1231.08 328.857 1229.46 328.061 1228.46 327.014C1227.5 325.966 1227.01 324.71 1227.01 323.244C1227.01 321.4 1227.75 319.892 1229.21 318.719C1230.72 317.546 1232.94 316.771 1235.87 316.394V315.703C1233.61 315.703 1231.87 315.41 1230.66 314.824C1229.49 314.195 1228.9 313.253 1228.9 311.996C1228.9 310.823 1229.46 309.776 1230.6 308.854C1231.73 307.933 1233.61 307.325 1236.25 307.032V306.215C1233.82 305.838 1231.89 304.895 1230.47 303.387C1229.09 301.837 1228.4 299.869 1228.4 297.481C1228.4 295.344 1228.96 293.48 1230.09 291.888C1231.27 290.255 1232.94 288.977 1235.12 288.055C1237.34 287.092 1240 286.61 1243.1 286.61H1259.69V293.648L1248.82 292.265V293.145C1251.88 293.564 1253.99 294.318 1255.16 295.407C1256.38 296.496 1256.99 297.858 1256.99 299.492C1256.99 301.125 1256.48 302.591 1255.48 303.89C1254.47 305.147 1252.97 306.152 1250.95 306.906C1248.94 307.618 1246.45 307.974 1243.48 307.974C1242.77 307.974 1242.01 307.953 1241.22 307.912C1240.46 307.828 1239.58 307.702 1238.58 307.535C1237.7 307.995 1237.03 308.435 1236.57 308.854C1236.1 309.231 1235.87 309.608 1235.87 309.985C1235.87 310.237 1236 310.446 1236.25 310.614C1236.54 310.739 1236.9 310.844 1237.32 310.928C1237.78 310.97 1238.28 310.991 1238.83 310.991H1248.57C1249.4 310.991 1250.47 311.053 1251.77 311.179C1253.11 311.263 1254.43 311.577 1255.73 312.122C1257.07 312.624 1258.18 313.483 1259.06 314.698C1259.98 315.871 1260.44 317.525 1260.44 319.662C1260.44 322.092 1259.77 324.081 1258.43 325.631C1257.13 327.223 1255.12 328.396 1252.4 329.15C1249.72 329.904 1246.31 330.281 1242.16 330.281ZM1242.47 322.615C1245.24 322.615 1247.33 322.49 1248.76 322.238C1250.22 321.987 1251.23 321.61 1251.77 321.107C1252.32 320.646 1252.59 320.06 1252.59 319.348C1252.59 318.636 1252.4 318.07 1252.02 317.651C1251.69 317.232 1251.23 316.939 1250.64 316.771C1250.1 316.562 1249.53 316.457 1248.94 316.457C1248.36 316.415 1247.86 316.394 1247.44 316.394H1239.27C1237.63 316.771 1236.48 317.253 1235.81 317.84C1235.18 318.426 1234.87 319.117 1234.87 319.913C1234.87 320.667 1235.16 321.233 1235.75 321.61C1236.34 322.029 1237.19 322.301 1238.32 322.427C1239.5 322.552 1240.88 322.615 1242.47 322.615ZM1243.04 303.01C1244.8 303.01 1246.14 302.55 1247.06 301.628C1248.02 300.664 1248.5 299.387 1248.5 297.795C1248.5 296.203 1248 294.904 1247 293.899C1246.03 292.852 1244.69 292.328 1242.97 292.328C1241.26 292.328 1239.9 292.852 1238.89 293.899C1237.93 294.904 1237.45 296.203 1237.45 297.795C1237.45 298.842 1237.65 299.764 1238.07 300.56C1238.53 301.314 1239.18 301.921 1240.02 302.382C1240.86 302.801 1241.86 303.01 1243.04 303.01Z" fill="#1A3865"/>
<mask id="mask2_2560_61" style="mask-type:luminance" maskUnits="userSpaceOnUse" x="-319" y="-781" width="2000" height="2000">
<path d="M-319 -781H1681V1219H-319V-781Z" fill="white"/>
</mask>
<g mask="url(#mask2_2560_61)">
<path d="M537.634 244.824H1192.73" stroke="#1A3865" stroke-width="8.73467" stroke-miterlimit="10"/>
</g>
</g>
</svg>
